<svg xmlns="http://www.w3.org/2000/svg" viewBox="0 0 600 300">
  <rect width="600" height="300" fill="#F5F5FA"/>
  <rect x="40" y="40" width="230" height="220" rx="14" fill="#5454D4"/>
  <rect x="65" y="70" width="180" height="14" rx="7" fill="#ffffff" opacity="0.9"/>
  <rect x="65" y="100" width="140" height="10" rx="5" fill="#ffffff" opacity="0.6"/>
  <rect x="65" y="120" width="160" height="10" rx="5" fill="#ffffff" opacity="0.6"/>
  <rect x="65" y="140" width="120" height="10" rx="5" fill="#ffffff" opacity="0.6"/>
  <rect x="300" y="40" width="260" height="100" rx="14" fill="#003366"/>
  <circle cx="335" cy="90" r="18" fill="#ffffff" opacity="0.9"/>
  <rect x="365" y="75" width="160" height="10" rx="5" fill="#ffffff" opacity="0.7"/>
  <rect x="365" y="95" width="120" height="10" rx="5" fill="#ffffff" opacity="0.5"/>
  <rect x="300" y="160" width="260" height="100" rx="14" fill="#19191B" opacity="0.85"/>
  <circle cx="335" cy="210" r="18" fill="#5454D4"/>
  <rect x="365" y="195" width="160" height="10" rx="5" fill="#ffffff" opacity="0.8"/>
  <rect x="365" y="215" width="120" height="10" rx="5" fill="#ffffff" opacity="0.5"/>
</svg>
